# xmcd
# 
# Track frame offsets:
#     150
#     22971
#     52303
#     76431
#     104721
#     122720
#     145714
# 
# Disc length: 2330
# 
# Revision: 3
# Processed by: cddbd v1.5.2PL0 Copyright (c) Steve Scherf et al.
# Submitted via: fre:ac v1.0.31
# 
DISCID=5f091807
DTITLE=The Blue Nile - Hats
DYEAR=1989
DGENRE=New Wave
TTITLE0=Over the Hillside
TTITLE1=The Downtown Lights
TTITLE2=Let's Go Out Tonight
TTITLE3=Headlights on the Parade
TTITLE4=From a Late Night Train
TTITLE5=Seven AM
TTITLE6=Saturday Night
EXTD=YEAR: 1989
EXTT0=
EXTT1=
EXTT2=
EXTT3=
EXTT4=
EXTT5=
EXTT6=
PLAYORDER=
